<svg xmlns="http://www.w3.org/2000/svg" width="33" height="32.993" viewBox="0 0 33 32.993">
  <path id="instagram" d="M16.429,39.862a8.459,8.459,0,1,0,8.459,8.459A8.446,8.446,0,0,0,16.429,39.862Zm0,13.958a5.5,5.5,0,1,1,5.5-5.5,5.509,5.509,0,0,1-5.5,5.5Zm10.778-14.3a1.973,1.973,0,1,1-1.973-1.973A1.968,1.968,0,0,1,27.207,39.516Zm5.6,2a9.764,9.764,0,0,0-2.665-6.913,9.828,9.828,0,0,0-6.913-2.665c-2.724-.155-10.888-.155-13.612,0A9.814,9.814,0,0,0,2.706,34.6,9.8,9.8,0,0,0,.041,41.511c-.155,2.724-.155,10.888,0,13.612a9.764,9.764,0,0,0,2.665,6.913A9.841,9.841,0,0,0,9.619,64.7c2.724.155,10.888.155,13.612,0a9.764,9.764,0,0,0,6.913-2.665,9.828,9.828,0,0,0,2.665-6.913C32.964,52.4,32.964,44.243,32.809,41.519ZM29.29,58.046a5.568,5.568,0,0,1-3.136,3.136c-2.172.861-7.325.663-9.725.663s-7.561.191-9.725-.663a5.568,5.568,0,0,1-3.136-3.136c-.861-2.172-.663-7.325-.663-9.725s-.191-7.561.663-9.725A5.568,5.568,0,0,1,6.7,35.46c2.172-.861,7.325-.663,9.725-.663s7.561-.191,9.725.663A5.568,5.568,0,0,1,29.29,38.6c.861,2.172.663,7.325.663,9.725S30.151,55.882,29.29,58.046Z" transform="translate(0.075 -31.825)" fill="#fff"/>
</svg>
