<svg xmlns="http://www.w3.org/2000/svg" width="841.861" height="165.266" viewBox="0 0 841.861 165.266">
  <g id="Layer_1" data-name="Layer 1" transform="translate(-118.837 -1660.221)">
    <g id="Group_43" data-name="Group 43">
      <g id="Group_42" data-name="Group 42">
        <path id="Path_224" data-name="Path 224" d="M416.433,1717.965c-7.391,0-14.338,2.219-18.478,5.914-5.912,5.173-8.425,11.973-9.757,18.625h18.921a11.473,11.473,0,0,1,2.662-5.912,5.687,5.687,0,0,1,4.434-1.774c3.106,0,4.584,2.068,4.584,4.729a21.774,21.774,0,0,1-.445,3.843l-1.626,8.132h-6.5c-9.166,0-14.487,1.329-19.365,5.024s-9.165,10.645-10.5,17.3a43.107,43.107,0,0,0-.885,8.277,20.869,20.869,0,0,0,2.217,10.2c3.1,5.322,7.244,7.538,13.895,7.538a14.472,14.472,0,0,0,8.425-2.363,22.876,22.876,0,0,0,5.914-5.471l-1.33,6.653h17.738l10.5-52.921a49.26,49.26,0,0,0,.887-8.425c0-5.47-1.184-9.461-3.7-12.713C430.328,1719.888,424.416,1717.965,416.433,1717.965Zm-4.139,56.024c-1.183,5.914-3.991,9.019-7.686,9.019s-5.47-2.217-5.47-5.914c0-4.138,1.773-8.573,4.138-10.495,1.922-1.477,3.252-1.921,7.688-1.921h3.251Z" fill="#231f20"/>
        <path id="Path_225" data-name="Path 225" d="M485.466,1717.965a16.675,16.675,0,0,0-7.538,1.774,28.838,28.838,0,0,0-6.357,5.027l1.182-5.618H454.719L438.9,1798.677h18.922l10.94-55.137c1.478-7.1,4.582-8.722,7.686-8.722a4.424,4.424,0,0,1,4.731,4.729,20.887,20.887,0,0,1-.591,3.993l-10.941,55.137H488.57l10.94-55.287a53.878,53.878,0,0,0,1.33-9.015c0-4.287-.444-6.653-2.217-9.757C496.849,1721.662,493.893,1717.965,485.466,1717.965Z" fill="#231f20"/>
        <path id="Path_226" data-name="Path 226" d="M539.569,1717.965c-10.641,0-16.7,3.1-21.138,8.428-5.024,6.059-7.538,13.006-11.529,32.519-1.774,9.166-2.81,15.225-2.81,19.808a24.5,24.5,0,0,0,2.514,11.826q4.878,9.312,18.627,9.312c10.345,0,16.407-3.1,20.841-8.425,3.4-4.14,5.766-8.574,7.835-17.147H534.988c-1.036,3.843-1.921,5.617-3.4,7.1a5.787,5.787,0,0,1-4.286,1.626,4.357,4.357,0,0,1-3.252-1.184,5.462,5.462,0,0,1-1.33-3.992,98.342,98.342,0,0,1,1.772-12.71h31.783c2.071-10.348,3.7-19.07,3.7-26.461,0-5.618-1.33-10.348-3.4-13.3C553.761,1721.366,548.588,1717.965,539.569,1717.965Zm.593,33.113H527.449c1.33-5.913,2.514-10.643,4.138-13.156a6.167,6.167,0,0,1,5.471-3.1c3.4,0,4.582,1.922,4.582,5.32A58.739,58.739,0,0,1,540.162,1751.078Z" fill="#231f20"/>
        <path id="Path_227" data-name="Path 227" d="M599.734,1752.261l-7.1-3.253c-3.548-1.625-5.174-3.7-5.174-6.652a7.7,7.7,0,0,1,2.07-5.764,6.25,6.25,0,0,1,4.434-1.774c2.071,0,3.1.442,3.991,1.329a5.25,5.25,0,0,1,1.478,3.7,13.5,13.5,0,0,1-.148,2.364h18.036a25.656,25.656,0,0,0,.591-5.469,17.556,17.556,0,0,0-3.991-11.826c-3.253-4.139-9.312-6.949-17.74-6.949-7.834,0-14.191,2.071-18.625,6.209-6.653,6.062-9.017,14.339-9.017,21.878,0,7.095,2.513,13.6,11.086,17.59l7.244,3.4c5.026,2.366,6.208,4.731,6.208,7.983a8.783,8.783,0,0,1-1.772,5.618,6.188,6.188,0,0,1-5.175,2.365,5.537,5.537,0,0,1-4.582-1.774,5.914,5.914,0,0,1-1.33-3.991,12.877,12.877,0,0,1,.146-2.366H561.743a27.757,27.757,0,0,0-.59,5.469c0,5.027,1.477,9.757,4.73,13.009,4.285,4.435,9.608,6.5,18.182,6.5,7.834,0,13.894-1.92,19.069-6.5,4.73-4.139,9.017-12.121,9.017-21.582C612.151,1763.791,608.6,1756.4,599.734,1752.261Z" fill="#231f20"/>
        <path id="Path_228" data-name="Path 228" d="M663.888,1717.965a16.687,16.687,0,0,0-7.54,1.774,25.635,25.635,0,0,0-5.174,3.992l6.061-30.3H638.314l-20.991,105.249h18.922l10.938-55.137c1.478-7.1,4.583-8.722,7.686-8.722a4.423,4.423,0,0,1,4.731,4.729,20.885,20.885,0,0,1-.591,3.993l-10.938,55.137h18.921l10.938-55.287a53.766,53.766,0,0,0,1.33-9.015c0-4.287-.443-6.653-2.217-9.757C675.269,1721.662,672.313,1717.965,663.888,1717.965Z" fill="#231f20"/>
        <path id="Path_229" data-name="Path 229" d="M716.956,1717.965c-7.392,0-14.339,2.219-18.479,5.914-5.911,5.173-8.425,11.973-9.754,18.625h18.921a11.446,11.446,0,0,1,2.659-5.912,5.693,5.693,0,0,1,4.436-1.774c3.1,0,4.582,2.068,4.582,4.729a21.92,21.92,0,0,1-.442,3.843l-1.627,8.132h-6.5c-9.166,0-14.487,1.329-19.366,5.024s-9.164,10.645-10.494,17.3a42.933,42.933,0,0,0-.887,8.277,20.892,20.892,0,0,0,2.217,10.2c3.1,5.322,7.243,7.538,13.895,7.538a14.483,14.483,0,0,0,8.427-2.363,22.9,22.9,0,0,0,5.912-5.471l-1.33,6.653h17.737l10.5-52.921a48.958,48.958,0,0,0,.887-8.425c0-5.47-1.183-9.461-3.7-12.713C730.851,1719.888,724.939,1717.965,716.956,1717.965Zm-4.139,56.024c-1.182,5.914-3.992,9.019-7.687,9.019s-5.469-2.217-5.469-5.914c0-4.138,1.774-8.573,4.14-10.495,1.92-1.477,3.25-1.921,7.686-1.921h3.252Z" fill="#231f20"/>
        <path id="Path_230" data-name="Path 230" d="M829.877,1722.252l-15.226,76.425h18.921l15.226-76.425Z" fill="#231f20"/>
        <path id="Path_231" data-name="Path 231" d="M864.762,1690.915H848.8l-14.783,21.138h13.3Z" fill="#231f20"/>
        <path id="Path_232" data-name="Path 232" d="M905.118,1737.331c0-5.47-1.184-9.461-3.7-12.713-3.7-4.73-9.607-6.653-17.59-6.653-7.391,0-14.339,2.219-18.478,5.914-5.912,5.173-8.426,11.973-9.757,18.625h18.921a11.463,11.463,0,0,1,2.661-5.912,5.689,5.689,0,0,1,4.434-1.774c3.106,0,4.584,2.068,4.584,4.729a21.76,21.76,0,0,1-.444,3.843l-1.626,8.132h-6.5c-9.166,0-14.487,1.329-19.366,5.024s-9.164,10.645-10.5,17.3a43.029,43.029,0,0,0-.885,8.277,20.869,20.869,0,0,0,2.217,10.2c3.1,5.322,7.243,7.538,13.894,7.538a14.473,14.473,0,0,0,8.426-2.363,22.876,22.876,0,0,0,5.914-5.471L876,1798.677h17.738l10.5-52.921A49.155,49.155,0,0,0,905.118,1737.331Zm-25.427,36.658c-1.183,5.914-3.991,9.019-7.686,9.019s-5.469-2.217-5.469-5.914c0-4.138,1.772-8.573,4.138-10.495,1.922-1.477,3.252-1.921,7.688-1.921h3.25Z" fill="#231f20"/>
        <path id="Path_233" data-name="Path 233" d="M960.7,1719.148H920.2l-3.4,16.852h18.479L906.3,1784.782l-2.66,13.9h44.945l3.252-16.853H927.882l30.008-48.78Z" fill="#231f20"/>
        <path id="Path_234" data-name="Path 234" d="M814.206,1703.775c-4.139-6.652-9.166-10.347-20.253-10.347h-27.2l-3.538,17.738h27.633a6.674,6.674,0,0,1,5.175,2.07,8.5,8.5,0,0,1,1.921,5.764c0,6.061-2.217,17.443-4.14,26.9-2.365,11.678-5.173,25.573-8.425,30.451a10.319,10.319,0,0,1-9.017,4.583h-7.244l11.9-58.656H761.207l-15.444,76.4h28.974c10.643,0,17.59-2.808,23.8-9.018,6.949-6.947,9.9-17.886,15.078-43.755,2.219-11.529,4.139-22.173,4.139-26.9C817.753,1712.793,816.718,1707.766,814.206,1703.775Z" fill="#231f20"/>
        <path id="Path_235" data-name="Path 235" d="M350.2,1782.085h-7.62a6.682,6.682,0,0,1-5.175-2.069,8.5,8.5,0,0,1-1.92-5.766c0-6.059,2.217-17.443,4.139-26.9,2.365-11.677,5.173-25.572,8.426-30.451a10.321,10.321,0,0,1,9.017-4.581l27.006.077,3.593-17.817H358.694c-10.643,0-17.591,2.807-23.8,9.017-6.949,6.949-9.9,17.887-15.078,43.755-2.219,11.53-4.14,22.174-4.14,26.9,0,6.208,1.036,11.236,3.547,15.227,4.14,6.651,9.166,10.346,20.253,10.346h27.2l.466-2.336h.008l11.088-54.9H358.676Z" fill="#231f20"/>
      </g>
      <path id="Path_236" data-name="Path 236" d="M201.47,1660.221a82.633,82.633,0,1,0,82.633,82.632A82.632,82.632,0,0,0,201.47,1660.221Zm-7.915,116.386-.39,2.024-22.763,4.014c-9.279,1.636-13.485-.714-16.95-5.671-2.1-2.969-2.968-7.023-2.968-12.219,0-3.959,1.607-13.15,3.464-23.126,4.33-22.415,6.8-32,12.619-38.844,5.2-6.114,11.01-9.49,19.918-11.061l24.248-4.275-2.953,15.471-22.657,3.891a10.733,10.733,0,0,0-7.546,5.165c-2.722,4.564-5.072,16.607-7.051,26.729-1.609,8.2-3.465,18.055-3.465,23.128a6.089,6.089,0,0,0,1.608,4.542,4.842,4.842,0,0,0,4.331.966l6.365-1.122,6.241-30.706,16.371-2.887-8.415,43.981Zm55.527-31.151c-4.22,21.844-6.632,31.191-12.3,37.858-5.062,5.957-10.73,9.245-19.412,10.776l-23.63,4.167,12.973-66.484,16.166-2.868-10.089,51.524,5.907-1.04a10.463,10.463,0,0,0,7.355-5.036c2.653-4.447,4.942-16.183,6.871-26.048,1.569-7.993,3.378-17.6,3.378-22.537a5.928,5.928,0,0,0-1.569-4.428,4.713,4.713,0,0,0-4.219-.943l-6.39,1.126-.014.075-37.588,6.637,2.894-15.022,43.629-7.73c9.044-1.594,13.144.7,16.519,5.525,2.049,2.9,2.892,6.847,2.892,11.911C252.457,1726.778,250.892,1735.734,249.082,1745.456Z" fill="#231f20"/>
    </g>
  </g>
</svg>
