<svg xmlns="http://www.w3.org/2000/svg" width="33" height="33" viewBox="0 0 33 33">
  <path id="arroba" d="M41,22.9C41,13.838,33.685,8,24.5,8a16.5,16.5,0,1,0,9.787,29.785.8.8,0,0,0,.139-1.145L33.413,35.4a.8.8,0,0,0-1.093-.136A13.307,13.307,0,1,1,24.5,11.194c7.283,0,13.306,4.326,13.306,11.71,0,4.2-2.826,6.539-5.524,6.539-1.3,0-1.339-.84-1.089-2.093l1.9-9.884a.8.8,0,0,0-.784-.949H29.708a.8.8,0,0,0-.784.648c-.073.381-.111.555-.152.931a4.894,4.894,0,0,0-4.338-2.067c-4.764,0-8.983,4.158-8.983,10.171,0,4.069,2.187,6.794,6.2,6.794a6.845,6.845,0,0,0,5.306-2.81c.276,2.052,1.9,2.529,3.95,2.529C37.5,32.711,41,28.478,41,22.9ZM22.777,29.38c-1.894,0-3.025-1.295-3.025-3.463,0-3.827,2.632-6.215,4.964-6.215,2,0,3.025,1.433,3.025,3.432C27.741,26.252,25.534,29.38,22.777,29.38Z" transform="translate(-8 -8)" fill="#FF6200"/>
</svg>
