<svg xmlns="http://www.w3.org/2000/svg" width="106.482" height="22.563" viewBox="0 0 106.482 22.563">
  <path id="Union_1" data-name="Union 1" d="M36.655,21.563V5.477C36.655,2.152,38.624,0,42.627,0H69.663V17.418c0,2.212-2.018,4.145-5.555,4.145ZM43.623,7.8v8.789H59.8a3.047,3.047,0,0,0,3.316-2.9V5.061H46.525A2.7,2.7,0,0,0,43.623,7.8ZM26.538,21.563V8.765c0-2.075-1.085-3.7-3.4-3.7H6.966v16.5H0V0H27.036c3.82,0,6.137,2.512,6.137,5.445V21.563Zm72.609,0a4.6,4.6,0,0,1-1.91-.776c-1.453-.905-4.089-2.531-6.66-4.112l4.18-2.579a3.4,3.4,0,0,0,2.3-.331.618.618,0,0,1,.7.076l7.494,6.67a.6.6,0,0,1-.381,1.052Zm-26.086,0a.6.6,0,0,1-.382-1.053l10.266-9.136a.711.711,0,0,0,0-1.182L72.68,1.053A.6.6,0,0,1,73.062,0h5.723a4.594,4.594,0,0,1,1.91.777c1.761,1.1,5.256,3.251,8.271,5.106.761.473,2.408,1.489,4.033,2.491a3.415,3.415,0,0,0,.035,4.792c-1.636,1.009-3.3,2.038-4.068,2.515-3.015,1.854-6.51,4.007-8.271,5.1a4.594,4.594,0,0,1-1.91.777Zm15.906-.35H83.227l5.741-3.542,5.739,3.542ZM97.091,7.758a3.4,3.4,0,0,0-1.643-.42,3.486,3.486,0,0,0-.763.085L90.579,4.89c2.57-1.583,5.206-3.208,6.659-4.113A4.591,4.591,0,0,1,99.148,0h5.724a.6.6,0,0,1,.381,1.053L97.8,7.685a.605.605,0,0,1-.4.152A.633.633,0,0,1,97.091,7.758ZM83.227.352h11.48L88.968,3.9Z" transform="translate(0.5 0.5)" fill="#ff6200" stroke="rgba(0,0,0,0)" stroke-miterlimit="10" stroke-width="1"/>
</svg>
