<svg xmlns="http://www.w3.org/2000/svg" width="55.8" height="45.72" viewBox="0 0 55.8 45.72">
  <path id="Path_261" data-name="Path 261" d="M28.08-83.28,18.72-65.76l-6.48,1.8a13.311,13.311,0,0,1,2.52-3.42A4.568,4.568,0,0,1,18-68.76a10.446,10.446,0,0,1,7.56,3.36,11.7,11.7,0,0,1,3.36,8.64,13.362,13.362,0,0,1-3.72,9.48,12.3,12.3,0,0,1-9.36,3.96,12.561,12.561,0,0,1-9.18-3.9,12.976,12.976,0,0,1-3.9-9.54,19.915,19.915,0,0,1,.84-5.28,39.407,39.407,0,0,1,3.48-7.8l10.44-19.2Zm29.64,0L48.36-65.76l-6.48,1.8a13.311,13.311,0,0,1,2.52-3.42,4.568,4.568,0,0,1,3.24-1.38A10.446,10.446,0,0,1,55.2-65.4a11.7,11.7,0,0,1,3.36,8.64,13.362,13.362,0,0,1-3.72,9.48,12.3,12.3,0,0,1-9.36,3.96,12.561,12.561,0,0,1-9.18-3.9,12.976,12.976,0,0,1-3.9-9.54,19.915,19.915,0,0,1,.84-5.28,39.407,39.407,0,0,1,3.48-7.8l10.44-19.2Z" transform="translate(-2.76 89.04)" fill="#231f20" opacity="0.2"/>
</svg>
