<svg xmlns="http://www.w3.org/2000/svg" width="1073.162" height="1073.162" viewBox="0 0 1073.162 1073.162">
  <g id="Layer_1" data-name="Layer 1" transform="translate(-3.419 -7.778)">
    <g id="Group_2" data-name="Group 2">
      <path id="Path_2" data-name="Path 2" d="M540,7.778C243.655,7.778,3.419,248.006,3.419,544.355S243.655,1080.94,540,1080.94,1076.581,840.7,1076.581,544.355,836.347,7.778,540,7.778ZM485.139,778.3l-2.7,14.033L324.663,820.159c-64.314,11.339-93.471-4.952-117.484-39.309-14.568-20.578-20.574-48.68-20.574-84.691,0-27.437,11.142-91.147,24.012-160.291,30.009-155.356,47.153-221.822,87.464-269.233,36.015-42.372,76.313-65.775,138.051-76.659L604.2,160.343,583.73,267.571,426.7,294.544c-25.724,4.541-41.162,18.4-52.3,35.8-18.867,31.628-35.153,115.1-48.872,185.261-11.153,56.842-24.014,125.137-24.014,160.3,0,12.852,3.428,24.261,11.14,31.479,6.868,6.492,17.161,8.977,30.02,6.7l44.115-7.778,43.259-212.829L543.515,473.47,485.183,778.3ZM870,562.4c-29.252,151.4-45.967,216.189-85.242,262.4-35.083,41.287-74.371,64.078-134.544,74.69L486.434,928.367l89.92-460.811L688.4,447.678,618.47,804.8l40.945-7.21c25.071-4.427,40.114-17.944,50.976-34.9,18.389-30.823,34.257-112.172,47.626-180.545,10.875-55.4,23.41-121.953,23.41-156.205,0-12.537-3.347-23.666-10.873-30.692-6.68-6.334-16.706-8.749-29.241-6.535l-44.292,7.8-.1.516-260.524,46L456.46,338.919,758.854,285.34c62.685-11.05,91.1,4.821,114.494,38.3C887.555,343.7,893.4,371.089,893.4,406.19,893.4,432.936,882.55,495.01,870,562.4Z" fill="#fff"/>
    </g>
  </g>
</svg>
