<svg xmlns="http://www.w3.org/2000/svg" width="33.152" height="26.925" viewBox="0 0 33.152 26.925">
  <path id="twitter" d="M29.744,54.792c.021.294.021.589.021.884,0,8.982-6.837,19.332-19.332,19.332A19.2,19.2,0,0,1,0,71.957a14.055,14.055,0,0,0,1.641.084,13.607,13.607,0,0,0,8.435-2.9,6.806,6.806,0,0,1-6.353-4.712,8.569,8.569,0,0,0,1.283.105A7.186,7.186,0,0,0,6.794,64.3a6.8,6.8,0,0,1-5.448-6.668v-.084a6.843,6.843,0,0,0,3.071.862,6.8,6.8,0,0,1-2.1-9.087,19.313,19.313,0,0,0,14.01,7.11,7.67,7.67,0,0,1-.168-1.557,6.8,6.8,0,0,1,11.759-4.649,13.377,13.377,0,0,0,4.312-1.641,6.776,6.776,0,0,1-2.987,3.744,13.621,13.621,0,0,0,3.913-1.052,14.605,14.605,0,0,1-3.408,3.513Z" transform="translate(0 -48.082)" fill="#fff"/>
</svg>
