<svg xmlns="http://www.w3.org/2000/svg" width="16.963" height="15.078" viewBox="0 0 16.963 15.078">
  <path id="thophy" d="M16.256,1.885H13.193V.707A.705.705,0,0,0,12.486,0H4.476a.705.705,0,0,0-.707.707V1.885H.707A.705.705,0,0,0,0,2.592V4.241A3.843,3.843,0,0,0,1.823,7.206,6.9,6.9,0,0,0,5.062,8.434,6.514,6.514,0,0,0,7.068,10.6v2.12H5.654a1.7,1.7,0,0,0-1.885,1.649v.353a.354.354,0,0,0,.353.353H12.84a.354.354,0,0,0,.353-.353v-.353a1.7,1.7,0,0,0-1.885-1.649H9.895V10.6A6.514,6.514,0,0,0,11.9,8.434,6.875,6.875,0,0,0,15.14,7.206a3.851,3.851,0,0,0,1.823-2.966V2.592A.705.705,0,0,0,16.256,1.885ZM2.924,5.678a2.166,2.166,0,0,1-1.04-1.437V3.769H3.775a10.577,10.577,0,0,0,.377,2.539A4.746,4.746,0,0,1,2.924,5.678ZM15.078,4.241a2.263,2.263,0,0,1-1.04,1.437,4.764,4.764,0,0,1-1.231.63,10.577,10.577,0,0,0,.377-2.539h1.894Z" fill="#ff6200"/>
</svg>
